<?xml version="1.0" encoding="UTF-8"?>
<svg id="Layer_1" data-name="Layer 1" xmlns="http://www.w3.org/2000/svg" viewBox="0 0 2444.99 575.17">
  <defs>
    <style>
      .cls-1 {
        stroke: #fff;
      }

      .cls-1, .cls-2 {
        fill: #353535;
      }

      .cls-1, .cls-2, .cls-3, .cls-4 {
        fill-rule: evenodd;
      }

      .cls-1, .cls-5 {
        stroke-miterlimit: 22.93;
      }

      .cls-3 {
        fill: #6d6e70;
      }

      .cls-5 {
        fill: none;
        stroke: #353535;
        stroke-width: 3.43px;
      }

      .cls-4 {
        fill: #00a651;
      }

      .cls-6 {
        fill: #231f20;
        font-family: MicrosoftSansSerif, 'Microsoft Sans Serif';
        font-size: 197.35px;
        letter-spacing: .24em;
      }
    </style>
  </defs>
  <polyline class="cls-5" points="1.71 531.21 1.71 48.54 628.97 48.54 628.97 531.21"/>
  <path class="cls-2" d="M320.31,530.02c1.44-.24,2.69-.36,3.73-.36,4.81,0,7.3,2.55,7.46,7.64.16,5.09.3,8.64.42,10.67.12,2.01.86,6.29,2.22,12.87.56,2.65.84,4.69.84,6.13,0,2.17-.48,3.95-1.44,5.35-.96,1.41-2.61,2.35-4.93,2.85-1.44-6.6-2.35-11.11-2.71-13.56-.36-2.44-.54-5.15-.54-8.12,0-4.99-.46-8.82-1.38-11.51-.92-2.68-2.43-4.03-4.51-4.03-1.2,0-2.56.46-4.09,1.38-1.52.92-3.21,2.31-5.05,4.15-1.2,1.2-5.09,7.64-11.67,19.27-4.65,8.26-9.71,12.39-15.16,12.41.32-1.23.52-2.39.6-3.51.08-1.12.12-2.49.12-4.09,0-1.84-.16-4.73-.48-8.66-.32-3.93-.48-6.94-.48-9.02,0-4.03.5-7.52,1.5-10.49,1-2.97,2.83-5.53,5.47-7.7.48,2.16.86,5.61,1.14,10.37.28,4.73,1.02,8.54,2.23,11.43,3.93-4.65,7.9-9.3,11.91-13.95,5.21-5.39,10.15-8.56,14.8-9.53M228.46,545.06c-.88,1.52-1.32,2.64-1.32,3.37,0,.4.48,1.2,1.44,2.41.64.8,1.12,1.68,1.44,2.65,5.14-1.2,9.71-2.97,13.72-5.29,4.65-2.73,7.9-5.98,9.74-9.74-2.65-.56-5.45-.84-8.42-.84-3.77,0-6.94.48-9.5,1.44-3.29,1.28-5.66,3.29-7.1,6.02ZM241.81,575.13c-7.62,0-13.63-1.36-18.04-4.09-4.81-2.97-7.22-7.26-7.22-12.87,0-1.84.28-3.87.84-6.07.56-2.21,1.44-4.55,2.65-7.04,1.77-3.53,6.07-6.98,12.93-10.35,6.86-3.37,13.17-5.05,18.95-5.05,2.25,0,4.19.3,5.83.9,1.65.6,3.01,1.58,4.09,2.95,1.08,1.36,1.62,2.77,1.62,4.21,0,2.73-2.16,5.37-6.49,7.94-1.93,1.12-5.33,2.61-10.23,4.45-3.29,1.29-6.9,3.21-10.83,5.78-1.6,1.04-5.21,3.57-10.83,7.58,2.57,1.77,5.23,3.11,8,4.03,2.77.92,5.51,1.38,8.24,1.38,6.26,0,13.27-2.13,21.05-6.37.24-.08,6.74-4.21,19.49-12.39,0,7.22-4.93,13.39-14.8,18.53-8.34,4.33-16.76,6.5-25.26,6.5ZM161.63,545.06c-.88,1.52-1.32,2.64-1.32,3.37,0,.4.48,1.2,1.44,2.41.64.8,1.12,1.68,1.44,2.65,5.14-1.2,9.71-2.97,13.72-5.29,4.65-2.73,7.9-5.98,9.74-9.74-2.65-.56-5.45-.84-8.42-.84-3.77,0-6.94.48-9.5,1.44-3.29,1.28-5.66,3.29-7.1,6.02ZM174.98,575.13c-7.62,0-13.63-1.36-18.04-4.09-4.81-2.97-7.22-7.26-7.22-12.87,0-1.84.28-3.87.84-6.07.56-2.21,1.44-4.55,2.65-7.04,1.77-3.53,6.07-6.98,12.93-10.35,6.86-3.37,13.17-5.05,18.95-5.05,2.25,0,4.19.3,5.83.9,1.65.6,3.01,1.58,4.09,2.95,1.08,1.36,1.62,2.77,1.62,4.21,0,2.73-2.16,5.37-6.49,7.94-1.93,1.12-5.33,2.61-10.23,4.45-3.29,1.29-6.9,3.21-10.83,5.78-1.6,1.04-5.21,3.57-10.83,7.58,2.57,1.77,5.23,3.11,8,4.03,2.77.92,5.51,1.38,8.24,1.38,6.26,0,13.27-2.13,21.05-6.37.24-.08,6.74-4.21,19.49-12.39,0,7.22-4.93,13.39-14.8,18.53-8.34,4.33-16.76,6.5-25.26,6.5ZM98.83,561.78c-5.29,3.53-10.91,6.28-16.84,8.24-5.93,1.96-11.91,2.95-17.93,2.95-3.53,0-6.98-.36-10.34-1.08-4.81-1.04-8.34-3.25-10.59-6.62-2.25-3.37-3.37-7.38-3.37-12.03,0-5.38,1.34-10.91,4.03-16.6,2.69-5.69,5.99-10.1,9.93-13.23,6.1-4.81,10.86-8.3,14.31-10.47,6.9-4.33,12.51-6.49,16.84-6.49,1.92,0,3.65.42,5.17,1.26,1.52.84,2.81,2.19,3.85,4.03-8.1,1.84-15,4.01-20.69,6.49-7.78,3.45-13.87,7.54-18.28,12.27-5.21,5.61-7.82,12.15-7.82,19.61,0,5.93,1.84,10.39,5.53,13.35,3.29,2.65,7.74,3.97,13.35,3.97,6.34,0,12.71-1.52,19.13-4.57,6.42-3.05,10.99-6.74,13.71-11.07-2.25-1.85-3.85-3.17-4.81-3.97-1.68-1.36-3.35-2.27-4.99-2.71-1.64-.44-3.19-.66-4.63-.66-1.69,0-3.13.44-4.33,1.32-3.53,2.49-6.18,3.93-7.94,4.33-.96.16-1.68.24-2.16.24-1.2,0-2.51-.22-3.91-.66-1.4-.44-2.71-.86-3.91-1.26.48-3.93,2.11-6.84,4.87-8.72,2.77-1.88,6.23-2.83,10.4-2.83,6.18,0,12.19,1.75,18.05,5.23,5.86,3.49,8.78,7.32,8.78,11.49,0,1.44-.44,2.87-1.32,4.27-.88,1.4-2.25,2.71-4.09,3.91Z"/>
  <path class="cls-4" d="M572.29,528.45c.8-.08,4.17-.88,10.11-2.41,2.57-.64,4.73-.96,6.5-.96.08.24.2.48.36.72,1.2.88,1.65,1.77,1.32,2.65-.08.4-1.6,1-4.55,1.8-1.83.48-3.63.96-5.37,1.45-3.43,1.28-6.16,2.99-8.14,5.11-1.98,2.13-3.09,4.17-3.29,6.16-.2,1.96-.34,3.63-.42,4.99-.08,1.36-.12,3.13-.12,5.29,0,6.34-.2,10.55-.6,12.63-.82,4.33-2.79,7.42-5.87,9.29-.34-1.47-.58-3.13-.74-5.01-.16-1.89-.24-3.75-.24-5.6,0-3.29.04-5.91.12-7.88.08-1.97.16-3.85.24-5.62,0-2.73-.06-4.65-.18-5.77-.12-1.12-.42-2.85-.9-5.17-2.01,1.12-3.37,1.84-4.09,2.16-1.84.96-3.33,1.45-4.45,1.45-1.2,0-3.37-.64-6.5-1.93,1.6-1.77,4.53-3.69,8.78-5.77,6.41-3.13,9.62-7.34,9.62-12.63v-7.84c0-6.98.2-12.85.62-17.62.4-4.77,1.36-9.65,2.85-14.64,1.97,1.78,3.35,4.11,4.13,7,.78,2.89,1.18,6.26,1.18,10.11,0,2.73-.08,5.25-.24,7.58-.56,8.12-.84,12.45-.84,13.02,0,2.64.24,5.13.72,7.46M503.78,545.06c-2.73-.4-4.75-1.18-6.07-2.35-1.32-1.16-1.99-2.59-1.99-4.27,0-1.53.58-3.19,1.75-4.99,1.16-1.81,2.71-3.47,4.63-4.99,3.61-2.97,7.66-5.27,12.15-6.92,4.49-1.65,8.94-2.47,13.35-2.47,2.89,0,5.5.32,7.82.96,2.32.64,4.57,1.76,6.74,3.37-8.26,1.93-14.44,3.37-18.53,4.33-7.46,1.76-13.55,4.77-18.29,9.02,12.75,2.65,22.5,5.01,29.23,7.1,6.74,2.08,10.11,4.73,10.11,7.94,0,1.44-.6,2.97-1.81,4.57-1.2,1.6-3.13,3.41-5.77,5.41-3.61,2.73-8.62,5.37-15.04,7.94-7.3,2.89-13.43,4.33-18.41,4.33-3.21,0-5.82-.56-7.82-1.68-2.01-1.12-3.29-2.97-3.85-5.53,3.05.72,6.14,1.08,9.26,1.08,6.74,0,13.2-1.4,19.37-4.21,6.17-2.8,11.11-6.77,14.8-11.91-4.33-2.09-9.74-3.59-16.24-4.51-6.5-.92-11.63-1.66-15.4-2.22ZM436.95,545.06c-.88,1.52-1.32,2.64-1.32,3.37,0,.4.48,1.2,1.44,2.41.64.8,1.12,1.68,1.44,2.65,5.13-1.2,9.71-2.97,13.72-5.29,4.65-2.73,7.9-5.98,9.74-9.74-2.65-.56-5.45-.84-8.42-.84-3.77,0-6.94.48-9.5,1.44-3.29,1.28-5.66,3.29-7.1,6.02ZM450.3,575.13c-7.62,0-13.63-1.36-18.04-4.09-4.81-2.97-7.22-7.26-7.22-12.87,0-1.84.28-3.87.84-6.07.56-2.21,1.44-4.55,2.65-7.04,1.77-3.53,6.07-6.98,12.93-10.35,6.86-3.37,13.17-5.05,18.95-5.05,2.25,0,4.19.3,5.83.9,1.65.6,3.01,1.58,4.09,2.95,1.08,1.36,1.62,2.77,1.62,4.21,0,2.73-2.16,5.37-6.49,7.94-1.93,1.12-5.33,2.61-10.23,4.45-3.29,1.29-6.9,3.21-10.83,5.78-1.6,1.04-5.21,3.57-10.83,7.58,2.56,1.77,5.23,3.11,8,4.03,2.77.92,5.51,1.38,8.24,1.38,6.26,0,13.27-2.13,21.05-6.37.24-.08,6.74-4.21,19.49-12.39,0,7.22-4.93,13.39-14.8,18.53-8.34,4.33-16.76,6.5-25.26,6.5ZM420.17,511.73h1.68v33.34c0,2.56.16,5.29.48,8.18.8,7.3,1.2,11.39,1.2,12.27,0,2.17-.1,3.85-.3,5.05-.2,1.2-.66,2.73-1.38,4.59-5.53-2.67-12.19-8.4-19.97-17.23-6.17-7.06-12.35-14.13-18.53-21.19-.56,2.49-.84,5.09-.84,7.82,0,2.25.28,5.69.84,10.35.56,4.65.84,8.18.84,10.59,0,1.76-.04,3.09-.12,3.97-.08.88-.32,2.25-.72,4.09-3.77-1.12-6.09-2.27-6.98-3.43-.88-1.16-1.32-3.95-1.32-8.36,0-2.65-.36-7.1-1.08-13.35-.4-3.45-.6-6.22-.6-8.3,0-1.93-.12-3.85-.36-5.78-.72-5.69-1.08-8.62-1.08-8.78,0-2.41.58-4.37,1.74-5.89,1.16-1.53,3.31-2.53,6.44-3.01,1.12,4.01,3.05,7.86,5.77,11.55,1.84,2.49,4.93,5.92,9.26,10.25,5.38,6.58,9.36,11.41,11.97,14.5,2.61,3.09,5.27,5.47,8,7.16.56-3.29.84-6.86.84-10.71,0-2.81-.1-6.62-.3-11.43-.2-4.81-.3-7.7-.3-8.66,0-3.71.22-7.12.66-10.25.44-3.13,1.26-6.14,2.47-9.02l1.68,1.69Z"/>
  <path class="cls-4" d="M134.51,535.04c-3-16.6,13.16-26.65,37.52-26.65-3.27,22.06-17.1,31.26-34.84,28.88,0,0-2.68-2.68-2.68-2.23"/>
  <path class="cls-2" d="M128.52,559.35c-.61,2.98.09,10.61-.9,12.76-2.18,4.74-6.79,2.38-10.84,3.06-.48-2.15-.97-4.61-1.45-7.42-.48-2.8-.72-5.36-.72-7.68,0-1.35.05-2.37.14-3.04,0-3.67-.48-7.2-1.45-10.58-2.99-10.46-6.55-15.18-6.65-16.44,1.73.18,6.87-3.63,8.43-3.01.65.25,6.27,13.2,14.83,9.89,9.06-3.51,19.98-11.66,35.12-22.1-7.38,7.02-21.14,16.04-29.27,23.62-2.92,2.72-4.39,4.84-5.19,6.91-1.42,3.71-.67,7.29-2.06,14.02"/>
  <path class="cls-3" d="M110.55,527.66c2.34-.87,4.39-1.14,4.58-.61.2.53-1.54,1.66-3.87,2.53-2.33.86-4.39,1.14-4.58.61-.2-.53,1.54-1.66,3.87-2.53"/>
  <path class="cls-2" d="M1607.18,144.76c4.47-.74,8.33-1.12,11.56-1.12,14.91,0,22.62,7.89,23.11,23.67.5,15.78.94,26.78,1.31,33.05.37,6.21,2.67,19.5,6.89,39.89,1.74,8.2,2.61,14.53,2.61,19.01,0,6.71-1.49,12.24-4.47,16.59-2.99,4.36-8.07,7.27-15.29,8.83-4.47-20.44-7.27-34.42-8.39-42-1.12-7.58-1.67-15.96-1.67-25.16,0-15.47-1.43-27.34-4.29-35.67-2.86-8.32-7.52-12.49-13.99-12.49-3.73,0-7.95,1.43-12.67,4.29-4.72,2.86-9.94,7.15-15.66,12.86-3.72,3.73-15.78,23.67-36.15,59.71-14.42,25.6-30.08,38.4-46.98,38.46,1-3.8,1.62-7.4,1.87-10.87.24-3.48.37-7.7.37-12.67,0-5.72-.5-14.67-1.49-26.85-1-12.18-1.5-21.49-1.5-27.96,0-12.49,1.56-23.29,4.66-32.49,3.11-9.19,8.76-17.15,16.96-23.85,1.5,6.71,2.67,17.39,3.54,32.12.87,14.66,3.17,26.47,6.9,35.41,12.17-14.42,24.48-28.82,36.91-43.24,16.15-16.72,31.44-26.53,45.85-29.52M1322.56,191.36c-2.73,4.72-4.1,8.19-4.1,10.43,0,1.24,1.5,3.73,4.47,7.46,1.99,2.49,3.48,5.22,4.47,8.2,15.91-3.73,30.07-9.2,42.5-16.4,14.41-8.46,24.48-18.52,30.19-30.19-8.2-1.74-16.9-2.61-26.09-2.61-11.68,0-21.5,1.49-29.45,4.47-10.2,3.97-17.53,10.19-22,18.64ZM1363.94,284.56c-23.61,0-42.25-4.23-55.91-12.67-14.91-9.2-22.37-22.49-22.37-39.89,0-5.72.87-11.99,2.61-18.82,1.74-6.84,4.47-14.1,8.2-21.81,5.47-10.94,18.82-21.63,40.08-32.06,21.25-10.44,40.81-15.66,58.71-15.66,6.96,0,12.99.93,18.08,2.8,5.1,1.86,9.32,4.9,12.67,9.13,3.36,4.23,5.03,8.57,5.03,13.05,0,8.45-6.71,16.65-20.12,24.6-5.97,3.47-16.53,8.07-31.69,13.79-10.19,3.98-21.37,9.94-33.55,17.9-4.97,3.23-16.16,11.06-33.55,23.48,7.95,5.47,16.22,9.63,24.79,12.49,8.57,2.86,17.09,4.29,25.53,4.29,19.39,0,41.13-6.59,65.24-19.75.74-.25,20.88-13.05,60.39-38.4,0,22.37-15.28,41.51-45.85,57.41-25.85,13.42-51.94,20.13-78.29,20.13ZM1115.48,191.36c-2.73,4.72-4.1,8.19-4.1,10.43,0,1.24,1.5,3.73,4.47,7.46,1.99,2.49,3.48,5.22,4.47,8.2,15.91-3.73,30.07-9.2,42.5-16.4,14.41-8.46,24.48-18.52,30.19-30.19-8.2-1.74-16.9-2.61-26.09-2.61-11.68,0-21.5,1.49-29.45,4.47-10.2,3.97-17.53,10.19-22,18.64ZM1156.85,284.56c-23.61,0-42.25-4.23-55.91-12.67-14.92-9.2-22.37-22.49-22.37-39.89,0-5.72.87-11.99,2.61-18.82,1.74-6.84,4.47-14.1,8.2-21.81,5.47-10.94,18.82-21.63,40.08-32.06,21.25-10.44,40.81-15.66,58.71-15.66,6.96,0,12.99.93,18.08,2.8,5.1,1.86,9.32,4.9,12.67,9.13,3.36,4.23,5.03,8.57,5.03,13.05,0,8.45-6.7,16.65-20.12,24.6-5.97,3.47-16.53,8.07-31.69,13.79-10.19,3.98-21.37,9.94-33.55,17.9-4.97,3.23-16.16,11.06-33.55,23.48,7.95,5.47,16.22,9.63,24.79,12.49,8.57,2.86,17.09,4.29,25.53,4.29,19.39,0,41.13-6.59,65.24-19.75.74-.25,20.88-13.05,60.39-38.4,0,22.37-15.28,41.51-45.85,57.41-25.85,13.42-51.94,20.13-78.29,20.13ZM920.86,243.18c-16.4,10.93-33.8,19.45-52.19,25.54-18.39,6.09-36.91,9.13-55.55,9.13-10.93,0-21.62-1.12-32.05-3.35-14.91-3.24-25.85-10.07-32.81-20.5-6.96-10.44-10.44-22.87-10.44-37.28,0-16.66,4.17-33.8,12.49-51.45,8.33-17.65,18.58-31.31,30.76-41.01,18.89-14.91,33.67-25.72,44.36-32.43,21.37-13.42,38.77-20.12,52.19-20.12,5.96,0,11.31,1.3,16.03,3.92,4.72,2.6,8.7,6.77,11.93,12.49-25.1,5.72-46.48,12.42-64.12,20.12-24.1,10.69-42.99,23.36-56.66,38.03-16.16,17.39-24.23,37.65-24.23,60.76,0,18.39,5.71,32.19,17.15,41.38,10.19,8.2,23.98,12.3,41.38,12.3,19.63,0,39.39-4.72,59.27-14.16,19.89-9.44,34.05-20.87,42.5-34.29-6.96-5.72-11.92-9.82-14.91-12.3-5.22-4.23-10.37-7.03-15.47-8.39-5.09-1.37-9.87-2.05-14.35-2.05-5.23,0-9.7,1.37-13.43,4.1-10.93,7.7-19.14,12.18-24.6,13.42-2.98.5-5.22.74-6.7.74-3.73,0-7.77-.68-12.12-2.05-4.35-1.37-8.39-2.67-12.12-3.92,1.49-12.18,6.53-21.19,15.1-27.03,8.57-5.83,19.32-8.76,32.24-8.76,19.14,0,37.78,5.41,55.92,16.22,18.15,10.81,27.21,22.68,27.21,35.6,0,4.47-1.36,8.89-4.1,13.23-2.73,4.35-6.96,8.39-12.67,12.12Z"/>
  <path class="cls-4" d="M2388,139.92c2.48-.24,12.93-2.73,31.32-7.46,7.96-1.99,14.66-2.98,20.13-2.98.25.74.62,1.49,1.12,2.23,3.73,2.73,5.1,5.47,4.1,8.2-.25,1.24-4.97,3.1-14.1,5.59-5.66,1.5-11.25,2.98-16.65,4.48-10.63,3.97-19.07,9.25-25.23,15.84-6.15,6.59-9.56,12.93-10.19,19.07-.62,6.09-1.06,11.25-1.3,15.47-.25,4.23-.37,9.69-.37,16.4,0,19.63-.63,32.68-1.87,39.14-2.54,13.43-8.63,22.99-18.2,28.77-1.06-4.54-1.8-9.7-2.3-15.53-.49-5.84-.74-11.63-.74-17.34,0-10.19.13-18.32.37-24.41.25-6.1.5-11.93.74-17.4,0-8.45-.19-14.42-.56-17.89-.37-3.48-1.3-8.83-2.79-16.03-6.21,3.47-10.44,5.71-12.67,6.7-5.72,2.98-10.32,4.48-13.8,4.48-3.73,0-10.43-2-20.13-5.97,4.97-5.47,14.04-11.43,27.22-17.89,19.88-9.7,29.82-22.74,29.82-39.15v-24.29c0-21.62.63-39.82,1.93-54.61,1.24-14.79,4.23-29.89,8.82-45.35,6.1,5.53,10.38,12.73,12.8,21.68,2.43,8.95,3.67,19.39,3.67,31.32,0,8.45-.25,16.28-.74,23.48-1.74,25.17-2.61,38.59-2.61,40.33,0,8.19.74,15.9,2.23,23.11M2175.7,191.36c-8.45-1.24-14.72-3.67-18.82-7.27-4.1-3.6-6.16-8.01-6.16-13.23,0-4.73,1.8-9.88,5.41-15.47,3.6-5.6,8.39-10.75,14.35-15.47,11.19-9.19,23.73-16.34,37.65-21.43,13.92-5.1,27.71-7.64,41.38-7.64,8.95,0,17.03,1,24.23,2.98,7.2,1.99,14.16,5.46,20.88,10.43-25.6,5.97-44.74,10.44-57.41,13.43-23.11,5.46-42,14.78-56.67,27.95,39.52,8.2,69.71,15.53,90.59,22,20.88,6.46,31.32,14.66,31.32,24.6,0,4.47-1.87,9.19-5.6,14.16-3.72,4.97-9.69,10.56-17.89,16.77-11.19,8.45-26.72,16.65-46.6,24.6-22.62,8.95-41.62,13.42-57.04,13.42-9.94,0-18.02-1.74-24.23-5.22-6.21-3.48-10.19-9.2-11.93-17.15,9.44,2.23,19.01,3.36,28.7,3.36,20.88,0,40.89-4.35,60.02-13.05,19.13-8.69,34.42-20.99,45.85-36.9-13.42-6.47-30.19-11.13-50.32-13.99-20.13-2.86-36.04-5.16-47.72-6.89ZM1968.62,191.36c-2.73,4.72-4.1,8.19-4.1,10.43,0,1.24,1.5,3.73,4.47,7.46,1.99,2.49,3.48,5.22,4.47,8.2,15.91-3.73,30.07-9.2,42.5-16.4,14.41-8.46,24.48-18.52,30.19-30.19-8.2-1.74-16.9-2.61-26.09-2.61-11.69,0-21.5,1.49-29.45,4.47-10.2,3.97-17.53,10.19-22,18.64ZM2010,284.56c-23.61,0-42.25-4.23-55.91-12.67-14.91-9.2-22.37-22.49-22.37-39.89,0-5.72.87-11.99,2.61-18.82,1.74-6.84,4.47-14.1,8.2-21.81,5.47-10.94,18.82-21.63,40.08-32.06,21.25-10.44,40.81-15.66,58.71-15.66,6.96,0,12.99.93,18.08,2.8,5.1,1.86,9.32,4.9,12.67,9.13,3.36,4.23,5.03,8.57,5.03,13.05,0,8.45-6.7,16.65-20.12,24.6-5.97,3.47-16.53,8.07-31.69,13.79-10.19,3.98-21.38,9.94-33.55,17.9-4.97,3.23-16.16,11.06-33.55,23.48,7.95,5.47,16.22,9.63,24.79,12.49,8.57,2.86,17.09,4.29,25.54,4.29,19.39,0,41.13-6.59,65.24-19.75.74-.25,20.87-13.05,60.39-38.4,0,22.37-15.28,41.51-45.85,57.41-25.85,13.42-51.94,20.13-78.29,20.13ZM1916.61,88.1h5.22v103.32c0,7.95.5,16.4,1.5,25.35,2.49,22.62,3.72,35.29,3.72,38.02,0,6.71-.3,11.93-.93,15.66-.62,3.73-2.05,8.45-4.29,14.23-17.15-8.27-37.78-26.03-61.88-53.38-19.13-21.86-38.27-43.8-57.41-65.67-1.73,7.7-2.6,15.79-2.6,24.23,0,6.96.87,17.65,2.6,32.06,1.74,14.42,2.61,25.35,2.61,32.81,0,5.46-.13,9.56-.37,12.3-.25,2.73-1,6.96-2.24,12.67-11.68-3.48-18.88-7.03-21.62-10.63-2.73-3.6-4.1-12.23-4.1-25.91,0-8.2-1.12-21.99-3.36-41.38-1.24-10.69-1.86-19.26-1.86-25.72,0-5.97-.37-11.93-1.12-17.9-2.24-17.64-3.36-26.71-3.36-27.21,0-7.46,1.8-13.55,5.4-18.26,3.6-4.73,10.26-7.83,19.95-9.33,3.47,12.43,9.44,24.36,17.89,35.79,5.71,7.7,15.29,18.33,28.7,31.75,16.66,20.38,29.02,35.35,37.09,44.92,8.07,9.56,16.34,16.96,24.79,22.18,1.74-10.19,2.61-21.25,2.61-33.18,0-8.7-.31-20.5-.93-35.41-.63-14.91-.94-23.86-.94-26.84,0-11.49.69-22.06,2.06-31.75,1.37-9.69,3.92-19.02,7.64-27.96l5.22,5.22Z"/>
  <path class="cls-4" d="M1031.44,160.34c-9.3-51.44,40.78-82.58,116.25-82.58-10.13,68.35-52.99,96.88-107.95,89.5,0,0-8.31-8.3-8.31-6.92"/>
  <path class="cls-2" d="M1012.88,235.66c-1.9,9.23.28,32.88-2.77,39.53-6.75,14.68-21.03,7.38-33.59,9.49-1.5-6.66-2.99-14.29-4.49-22.98-1.49-8.68-2.25-16.61-2.25-23.8,0-4.19.15-7.33.45-9.43,0-11.37-1.49-22.3-4.49-32.78-9.27-32.4-20.29-47.05-20.59-50.94,5.36.55,21.29-11.23,26.11-9.34,2,.79,19.44,40.91,45.94,30.64,28.09-10.87,61.9-36.14,108.83-68.47-22.86,21.74-65.52,49.7-90.7,73.2-9.04,8.44-13.61,14.98-16.08,21.4-4.41,11.49-2.06,22.6-6.37,43.46"/>
  <path class="cls-3" d="M957.19,137.45c7.24-2.69,13.6-3.53,14.2-1.89.61,1.65-4.76,5.16-12,7.85-7.23,2.68-13.6,3.53-14.2,1.89-.61-1.64,4.76-5.15,12-7.84"/>
  <path class="cls-4" d="M122.48,428.26c-10.7-24.72-16.64-51.98-16.64-80.63,0-104.08,78.28-189.86,179.16-201.73,31.08-3.58,32.45-46.02-10.45-40.05-118.55,16.73-209.76,118.6-209.76,241.78,0,30.43,7.24,73.15,21.72,100.25,15.28,28.54,43.47,32.63,65.53,4.04l109.75-142.21v136.04c0,22.75,37.85,20.45,37.85-.58v-184.51c0-3.62-.11-7.01-.57-10.04-2.28-14.97-18.98-17.87-29.86-9.88-5.41,3.97-10.52,10.53-15.3,16.74l-131.45,170.79Z"/>
  <path class="cls-1" d="M508.22,428.26c10.7-24.72,16.64-51.98,16.64-80.63,0-104.08-78.28-189.86-179.16-201.73-31.08-3.58-32.45-46.02,10.45-40.05,118.55,16.73,209.76,118.6,209.76,241.78,0,30.43-7.24,73.15-21.72,100.25-15.28,28.54-43.47,32.63-65.53,4.04l-109.75-142.21v136.04c0,22.75-37.85,20.45-37.85-.58v-184.51c0-3.62.11-7.01.57-10.04,2.28-14.97,18.99-17.87,29.86-9.88,5.41,3.97,10.52,10.53,15.3,16.74l131.45,170.79Z"/>
  <text class="cls-6" transform="translate(721.82 522.41)"><tspan x="0" y="0">Architectural</tspan></text>
</svg>